<svg width="16" height="16" viewBox="0 0 16 16" fill="none" xmlns="http://www.w3.org/2000/svg">
<path d="M13.8474 11.0386L12.9135 10.0486C13.4675 9.89287 13.9147 9.58656 14.255 9.12967C14.5953 8.67279 14.7654 8.14578 14.7654 7.54864C14.7654 6.83776 14.5227 6.23047 14.0373 5.72676C13.5519 5.22305 12.9663 4.97119 12.2804 4.97119H9.7637C9.5888 4.97119 9.44219 4.91011 9.32387 4.78795C9.20557 4.66578 9.14642 4.5144 9.14642 4.33381C9.14642 4.15321 9.20557 4.00192 9.32387 3.87994C9.44219 3.75797 9.5888 3.69698 9.7637 3.69698H12.2804C13.3095 3.69698 14.1867 4.07288 14.912 4.82467C15.6373 5.57648 16 6.48572 16 7.55238C16 8.30495 15.8043 8.99244 15.4128 9.61486C15.0213 10.2373 14.4995 10.7118 13.8474 11.0386ZM10.9983 8.05554L9.8935 6.91527H10.6343C10.8091 6.91527 10.9557 6.97664 11.0741 7.09938C11.1924 7.22212 11.2515 7.37421 11.2515 7.55565C11.2515 7.66237 11.229 7.75888 11.184 7.84518C11.139 7.93147 11.0771 8.00159 10.9983 8.05554ZM15.3194 15.8154C15.2002 15.9385 15.0556 16 14.8857 16C14.7158 16 14.5713 15.9385 14.4521 15.8154L0.174988 1.07982C0.0610207 0.962207 0.00272007 0.814366 8.62549e-05 0.636297C-0.00256128 0.458242 0.0557393 0.307675 0.174988 0.184597C0.294223 0.0615325 0.438781 0 0.608662 0C0.778543 0 0.923101 0.0615325 1.04234 0.184597L15.3194 14.9202C15.4334 15.0378 15.4917 15.1857 15.4943 15.3637C15.497 15.5418 15.4387 15.6923 15.3194 15.8154ZM4.09721 11.4078C3.06374 11.4078 2.1828 11.0319 1.45438 10.2801C0.72597 9.52827 0.361763 8.61904 0.361763 7.55238C0.361763 6.60813 0.656434 5.7796 1.24578 5.06678C1.83512 4.35396 2.57456 3.9235 3.46411 3.77539H3.65405L4.81266 4.97119H4.09721C3.40604 4.97119 2.81644 5.22305 2.3284 5.72676C1.84036 6.23047 1.59634 6.83901 1.59634 7.55238C1.59634 8.26575 1.84036 8.87428 2.3284 9.378C2.81644 9.88171 3.40728 10.1336 4.10094 10.1336H6.59806C6.77296 10.1336 6.91957 10.1946 7.03789 10.3168C7.15619 10.439 7.21534 10.5904 7.21534 10.7709C7.21534 10.9515 7.15619 11.1028 7.03789 11.2248C6.91957 11.3468 6.77296 11.4078 6.59806 11.4078H4.09721ZM5.7275 8.18948C5.55262 8.18948 5.40601 8.1284 5.2877 8.00624C5.16938 7.88407 5.11022 7.73269 5.11022 7.5521C5.11022 7.3715 5.16938 7.22021 5.2877 7.09823C5.40601 6.97626 5.55262 6.91527 5.7275 6.91527H6.70889L7.92289 8.18948H5.7275Z" fill="#F8F8F8"/>
</svg>
