<svg width="81" height="19" viewBox="0 0 81 19" fill="none" xmlns="http://www.w3.org/2000/svg">
<g id="Logo Shape">
<path d="M7.91667 0.000616074H0V19.0006H3.95833V0.673532L10.2917 19.0006H18.2083V0.000616074H14.25V18.3277L7.91667 0.000616074Z" fill="black"/>
<path d="M42.4253 0.000616074H46.3836V7.91202L53.3897 0.000616074H58.488L50.6812 8.78781H53.944L59.5411 19.0003H55.0919L49.9429 9.61873L46.3836 13.625V19.0006H42.4253V0.000616074Z" fill="black"/>
<path fill-rule="evenodd" clip-rule="evenodd" d="M24.2881 19.0006H20.3298L26.6393 0.000616074H33.9937L40.3033 19.0006H36.345L34.8441 14.4809H27.9306L26.486 12.3819L24.2881 19.0006ZM30.3165 0.847195L33.7057 11.053H26.9273L30.3165 0.847195Z" fill="black"/>
<path fill-rule="evenodd" clip-rule="evenodd" d="M60.7764 19H64.7348L66.9327 12.3813L68.3773 14.4803H75.2908L76.7917 19H80.75L74.4404 0H67.086L60.7764 19ZM74.1524 11.0524L70.7632 0.846579L67.374 11.0524H74.1524Z" fill="black"/>
</g>
</svg>
